<?xml version="1.0" standalone="no"?>
<!DOCTYPE svg PUBLIC "-//W3C//DTD SVG 20010904//EN"
 "http://www.w3.org/TR/2001/REC-SVG-20010904/DTD/svg10.dtd">
<svg version="1.0" xmlns="http://www.w3.org/2000/svg"
 width="512.000000pt" height="512.000000pt" viewBox="0 0 512.000000 512.000000"
 preserveAspectRatio="xMidYMid meet">

<g transform="translate(0.000000,512.000000) scale(0.100000,-0.100000)"
fill="#000000" stroke="none">
<path d="M2355 5004 c-116 -12 -220 -27 -305 -44 -833 -168 -1523 -756 -1833
-1560 -70 -181 -100 -296 -93 -355 11 -93 83 -161 181 -173 35 -3 57 1 100 22
68 34 90 70 135 216 191 625 629 1109 1217 1348 786 318 1675 123 2269 -500
142 -149 266 -324 353 -496 46 -92 49 -102 23 -102 -33 0 -98 -56 -122 -105
-30 -61 -25 -137 13 -194 29 -43 73 -72 283 -182 113 -60 138 -69 183 -69 57
0 112 23 148 62 12 12 65 108 118 212 94 182 97 191 93 243 -11 132 -152 219
-272 169 l-34 -14 -36 80 c-20 44 -63 128 -97 186 -388 676 -1045 1127 -1799
1237 -110 16 -440 28 -525 19z"/>
<path d="M2440 3973 c-647 -64 -1154 -526 -1276 -1163 -24 -130 -24 -370 0
-500 113 -589 557 -1033 1146 -1146 140 -26 371 -25 516 4 106 21 226 57 275
82 49 25 90 74 105 127 14 48 14 58 0 106 -24 83 -106 147 -187 147 -18 0 -80
-15 -138 -34 -387 -124 -780 -25 -1058 267 -84 88 -122 143 -173 245 -138 277
-143 587 -14 878 88 199 299 411 497 498 294 129 599 124 883 -16 107 -52 196
-121 291 -222 244 -261 331 -636 227 -978 -18 -58 -24 -99 -21 -135 12 -167
213 -239 333 -119 76 76 127 295 128 546 0 354 -115 662 -347 932 -288 334
-755 524 -1187 481z"/>
<path d="M2120 3018 c-91 -26 -145 -108 -138 -209 3 -47 11 -66 35 -96 49 -62
97 -84 169 -80 110 5 184 81 185 190 2 97 -56 173 -147 196 -50 13 -57 13
-104 -1z"/>
<path d="M2890 3019 c-88 -26 -140 -100 -140 -197 0 -118 89 -199 209 -190 64
5 104 27 148 85 22 29 28 49 31 102 4 61 2 69 -30 115 -50 75 -137 109 -218
85z"/>
<path d="M2266 2388 c-110 -24 -176 -137 -145 -246 35 -127 243 -245 434 -246
100 0 171 17 260 62 136 70 207 171 190 269 -23 140 -195 215 -306 134 -16
-11 -43 -31 -59 -43 -47 -35 -118 -30 -172 10 -83 62 -130 76 -202 60z"/>
<path d="M270 2291 c-56 -30 -73 -55 -175 -255 -94 -182 -97 -191 -93 -243 11
-132 152 -219 272 -169 l34 14 37 -81 c115 -259 321 -546 542 -757 381 -365
834 -587 1363 -667 143 -21 500 -24 640 -4 765 106 1420 533 1813 1183 158
261 307 648 293 763 -11 93 -83 161 -181 173 -54 6 -144 -34 -173 -76 -10 -15
-42 -99 -71 -187 -197 -613 -627 -1086 -1199 -1320 -789 -322 -1682 -128
-2278 497 -142 149 -266 324 -353 496 -46 92 -49 102 -23 102 32 0 98 56 121
102 40 83 16 190 -53 242 -17 13 -103 63 -191 111 -148 81 -165 88 -225 92
-50 2 -73 -1 -100 -16z"/>
</g>
</svg>
